<svg width="255" height="90" viewBox="0 0 265 106" fill="none" xmlns="http://www.w3.org/2000/svg">
<g clip-path="url(#clip0_2_15)">
<path d="M70.3188 0.424999C70.9304 0.779614 71.4038 1.33119 71.6615 1.98961C71.9192 2.64803 71.946 3.37438 71.7375 4.05L60.4812 40.625H81.25C81.8603 40.6248 82.4574 40.8032 82.9675 41.1384C83.4775 41.4736 83.8783 41.9509 84.1202 42.5112C84.3622 43.0715 84.4347 43.6905 84.329 44.2916C84.2232 44.8927 83.9437 45.4497 83.525 45.8937L33.525 99.0188C33.0412 99.5332 32.3974 99.8686 31.6986 99.9703C30.9997 100.072 30.2871 99.9341 29.6767 99.5789C29.0663 99.2237 28.5943 98.6722 28.3374 98.0143C28.0806 97.3565 28.0542 96.631 28.2625 95.9562L39.5187 59.375H18.75C18.1397 59.3752 17.5426 59.1967 17.0325 58.8616C16.5225 58.5264 16.1217 58.0491 15.8798 57.4888C15.6378 56.9285 15.5653 56.3095 15.671 55.7084C15.7768 55.1073 16.0563 54.5503 16.475 54.1062L66.475 0.981249C66.9582 0.467494 67.601 0.132303 68.2989 0.0301775C68.9967 -0.0719479 69.7086 0.0649982 70.3188 0.418749V0.424999Z" fill="#FFC700"/>
</g>
<path d="M64.224 72V31.68H73.952V47.36H87.968V31.68H97.696V72H87.968V54.912H73.952V72H64.224ZM106.161 31.68H120.753C123.186 31.68 125.383 31.9573 127.346 32.512C129.308 33.0667 130.972 33.8773 132.338 34.944C133.746 36.0107 134.812 37.312 135.538 38.848C136.306 40.3413 136.69 42.0693 136.69 44.032C136.69 46.3787 136.242 48.4053 135.346 50.112C134.45 51.8187 133.234 53.248 131.698 54.4C130.204 55.5093 128.434 56.3413 126.386 56.896C124.38 57.408 122.247 57.664 119.986 57.664H115.89V72H106.161V31.68ZM115.89 50.304H119.41C120.348 50.304 121.266 50.1973 122.162 49.984C123.058 49.7707 123.826 49.4507 124.466 49.024C125.148 48.5547 125.682 47.9573 126.066 47.232C126.492 46.5067 126.706 45.6107 126.706 44.544C126.706 42.7093 126.066 41.3227 124.786 40.384C123.548 39.4453 121.884 38.976 119.794 38.976H115.89V50.304ZM166.812 72H157.34V26.24H166.812V43.712C167.964 42.816 169.329 42.0693 170.908 41.472C172.487 40.8747 174.172 40.576 175.964 40.576C177.841 40.576 179.463 40.8533 180.828 41.408C182.193 41.9627 183.324 42.752 184.22 43.776C185.116 44.7573 185.777 45.9307 186.204 47.296C186.673 48.6613 186.908 50.176 186.908 51.84V72H177.436V53.376C177.436 51.328 177.009 49.8773 176.156 49.024C175.345 48.1707 174.193 47.744 172.7 47.744C171.676 47.744 170.631 47.9787 169.564 48.448C168.497 48.9173 167.58 49.536 166.812 50.304V72ZM213.92 41.28H223.392V72H216.416L215.456 68.672H215.2C214.773 69.0987 214.261 69.5467 213.664 70.016C213.066 70.4853 212.341 70.9333 211.488 71.36C210.677 71.744 209.738 72.064 208.672 72.32C207.605 72.576 206.389 72.704 205.024 72.704C201.696 72.704 199.093 71.7867 197.216 69.952C195.338 68.1173 194.4 65.408 194.4 61.824V41.28H203.872V61.056C203.872 62.6347 204.256 63.808 205.024 64.576C205.834 65.3013 206.858 65.664 208.096 65.664C209.589 65.664 210.805 65.3653 211.744 64.768C212.725 64.128 213.45 63.4667 213.92 62.784V41.28ZM261.941 56.768C261.941 59.2427 261.557 61.4613 260.789 63.424C260.064 65.3867 259.04 67.072 257.717 68.48C256.437 69.8453 254.901 70.8907 253.109 71.616C251.36 72.3413 249.44 72.704 247.349 72.704C245.344 72.704 243.637 72.4053 242.229 71.808C240.821 71.168 239.626 70.2933 238.645 69.184H238.389L237.813 72H230.965V26.24H240.373V43.392C241.354 42.5813 242.506 41.92 243.829 41.408C245.152 40.8533 246.624 40.576 248.245 40.576C252.512 40.576 255.861 42.0053 258.293 44.864C260.725 47.68 261.941 51.648 261.941 56.768ZM252.213 57.024C252.213 53.9093 251.616 51.584 250.421 50.048C249.226 48.512 247.541 47.744 245.365 47.744C244.341 47.744 243.36 48.0213 242.421 48.576C241.525 49.088 240.864 49.6 240.437 50.112V63.936C240.906 64.4907 241.525 64.9387 242.293 65.28C243.061 65.6213 243.872 65.792 244.725 65.792C245.706 65.792 246.645 65.6213 247.541 65.28C248.437 64.9387 249.226 64.4053 249.909 63.68C250.634 62.9547 251.189 62.0373 251.573 60.928C252 59.8187 252.213 58.5173 252.213 57.024Z" fill="black"/>
<defs>
<clipPath id="clip0_2_15">
<rect width="100" height="100" fill="white"/>
</clipPath>
</defs>
</svg>
