<svg width="270" height="90" viewBox="0 0 361 121" fill="none" xmlns="http://www.w3.org/2000/svg">
<path d="M179.365 0C180.503 9.0307 181.726 18.0488 182.889 27.0753C183.7 33.0063 184.505 38.9457 184.974 44.9123C183.026 43.8909 181.195 42.5078 179.002 42.0548C178.98 43.0846 179.182 44.0986 179.344 45.1115C180.777 53.5319 182.133 61.9712 183.136 70.4566C183.269 71.6562 183.482 72.8517 183.505 74.0639C183.269 73.9758 183.016 73.9171 182.852 73.7178C181.617 72.4532 180.427 71.1466 179.186 69.8904C181.581 84.6696 184.156 99.4278 186.507 114.215C186.908 116.569 187.192 118.754 187.676 121C188.092 119.565 188.127 118.055 188.361 116.585C189.21 107.517 189.71 98.418 190.405 89.337C191.182 90.9519 192.04 92.5248 192.859 94.1187C193.39 95.0792 193.818 96.0985 194.45 97.0024C194.637 97.0359 194.827 97.0695 195.019 97.1072C195.034 93.0512 195.074 88.9972 195.071 84.9433C195.168 82.6321 194.985 80.3168 195.198 78.0119C195.206 73.528 195.211 69.0473 195.272 64.5634C196.786 67.5813 198.271 70.6097 199.796 73.6234C200.028 73.3173 200.47 73.0593 200.375 72.6168C199.903 64.9073 199.341 57.2 198.974 49.4843C198.802 47.9344 198.838 46.3688 198.785 44.8127C199.147 44.9448 199.322 45.3024 199.522 45.6044C201.399 48.6286 203.29 51.6444 205.121 54.6959C205.382 55.0923 205.936 54.9769 206.343 54.979C208.446 54.7798 210.49 54.1852 212.479 53.4952C215.456 52.4214 218.415 51.0132 220.617 48.6873C222.189 48.9914 223.731 49.5199 225.199 50.1659C225.233 55.3209 225.141 60.478 225.173 65.633C225.293 68.5314 224.939 71.5031 225.773 74.326C226.412 76.3478 228.088 77.777 229.603 79.1654C232.301 81.5185 235.132 83.7174 237.961 85.9132C239.188 86.901 240.871 86.7469 242.344 86.663C244.107 86.5309 245.67 85.6553 247.253 84.9485C248.742 84.2648 250.205 83.5182 251.64 82.7254C253.547 81.6768 255.18 80.1291 256.296 78.2688C257.004 77.1279 257.172 75.7721 257.397 74.4781C257.818 71.6971 258.011 68.8858 257.992 66.0734C258.091 60.9981 257.213 55.9742 256.728 50.9366L256.628 50.7793C256.594 49.7852 256.408 48.8058 256.275 47.8222C256.075 46.5051 255.934 45.1503 255.359 43.9318C254.836 42.77 254.012 41.7654 253.083 40.9013C250.612 38.6279 247.918 36.5559 244.925 35.0081C243.658 34.2867 242.193 34.9221 240.958 35.3856C236.648 37.2039 232.665 39.6965 228.734 42.2069C227.809 42.7605 227.031 43.6173 226.764 44.6764C226.536 45.5698 226.077 46.3772 225.542 47.1196C224.09 46.9749 222.776 46.2986 221.386 45.9085C221.925 38.845 222.669 31.7993 223.177 24.7316C223.25 23.3894 223.591 21.956 223.003 20.6787C222.377 19.1855 221.272 17.9744 220.29 16.7097C216.656 12.2699 213.044 7.8101 209.277 3.48141C208.474 3.36397 207.685 3.56111 206.944 3.84843C204.5 4.72927 202.068 5.65939 199.601 6.47521C199.254 6.59476 198.885 6.6346 198.527 6.68494C198.162 4.56883 198.657 2.43699 198.695 0.314585C195.2 0.272641 191.695 0.475024 188.198 0.28837C185.724 0.135272 183.247 0.100667 180.771 0H179.365ZM205.89 9.07054C206.219 9.06228 206.54 9.16859 206.828 9.34318C207.028 9.69971 207.1 10.1024 207.138 10.5071C208.242 16.4528 208.587 22.4949 208.924 28.5224C209.023 29.9087 208.899 31.317 209.093 32.6907C209.16 35.5806 209.185 38.4696 209.145 41.3575C208.49 41.4749 207.826 41.4036 207.175 41.3155C205.271 41.1268 203.361 41.4141 201.492 41.7455C200.531 41.8524 199.582 42.0359 198.622 42.1282C198.396 33.8861 198.524 25.6387 198.437 17.3966C198.441 15.5133 198.43 13.6331 198.442 11.7498C198.438 11.2779 198.59 10.6466 199.148 10.5648C201.247 9.93356 203.426 9.61478 205.558 9.11773C205.668 9.08785 205.78 9.0733 205.89 9.07054H205.89ZM243.961 38.5682C244.241 39.5643 243.986 40.6046 243.666 41.5567C242.962 43.0898 241.711 44.2852 240.358 45.2583C239.151 46.1832 237.517 46.2986 236.392 47.3556C236.238 47.1144 236.172 46.8554 236.186 46.5744C236.191 45.6537 236.121 44.7194 236.366 43.8217C238.793 41.9279 241.403 40.2795 243.961 38.5682V38.5682ZM201.245 44.5243C201.946 44.5579 202.665 44.5159 203.351 44.7026C205.231 44.8536 207.092 45.1891 208.919 45.6568L209.103 46.113C209.111 46.287 209.123 46.4611 209.14 46.6373C208.438 47.7698 207.588 48.7964 206.754 49.8303C205.958 50.1197 205.55 49.2934 205.063 48.8551C203.763 47.4353 202.471 46.005 201.245 44.5243V44.5243ZM244.724 48.2679C245.306 52.5798 245.885 56.8948 246.22 61.234C246.347 62.7713 246.23 64.3201 246.405 65.8532C246.502 67.1178 246.272 68.3741 246.31 69.6387C246.285 72.0946 246.05 74.542 245.757 76.979C245.552 78.2479 245.438 79.5607 244.919 80.754C243.731 81.4336 242.549 82.1372 241.253 82.5944C240.935 82.737 240.585 82.7527 240.247 82.7254C239.339 81.7964 238.305 80.9292 237.667 79.7841C237.241 75.1471 236.849 70.4923 236.687 65.8322C236.493 64.3809 236.57 62.9087 236.513 61.449C236.258 57.7872 236.36 54.1087 236.329 50.4385C236.87 50.1973 237.412 49.9551 237.972 49.7517C238.985 49.2777 240.042 48.9033 241.043 48.3937C242.265 48.2846 243.496 48.2826 244.724 48.2679V48.2679Z" fill="white"/>
<path d="M132.344 11.0462C132.862 10.9128 133.542 11.0606 133.778 11.5879C133.974 14.2759 133.893 16.9906 134.101 19.6766C134.13 19.8161 134.19 20.0972 134.219 20.2388C134.452 20.2162 134.704 20.2183 134.898 20.0582C136.29 19.1082 137.655 18.1192 139.077 17.2122C139.753 16.8018 140.434 16.3566 141.207 16.1493C141.929 16.0447 142.461 16.6582 142.824 17.1958C143.876 18.7471 144.675 20.4522 145.477 22.143C146.38 24.2257 147.441 26.2755 147.952 28.4998C148.216 29.3596 147.327 29.8541 146.758 30.287C143.895 32.2815 140.945 34.161 137.893 35.86C137.189 36.3053 136.839 35.2219 136.36 34.8854C136.952 34.1816 137.573 33.4983 138.21 32.8314C138.462 32.6057 138.299 32.2425 138.245 31.9634C137.497 29.5996 136.861 27.2009 136.104 24.8412C136.084 24.7161 136.042 24.4678 136.022 24.3426C135.356 24.1744 134.669 24.2811 134.062 24.5889C134.007 24.6935 133.895 24.9028 133.839 25.0074C133.697 28.7768 133.856 32.5482 133.829 36.3196C133.813 40.9734 133.856 45.6271 133.85 50.2809C134.009 51.5736 133.916 52.8765 133.939 54.1754C133.955 57.5405 133.978 60.9057 134.027 64.2708C134.623 65.7523 136.075 66.61 136.995 67.835C136.152 67.8781 135.314 67.7899 134.485 67.6626C133.252 67.6421 132.006 67.5498 130.785 67.5395C128.8 67.3508 126.789 67.4841 124.822 67.7488C123.935 67.8596 123.027 67.7652 122.15 67.952C121.004 67.954 119.783 68.1695 118.706 67.6708C118.145 67.4164 117.58 67.164 117 66.9527C117.029 66.885 117.085 66.7516 117.113 66.6839C118.151 66.0847 119.05 65.2804 119.915 64.4617C120.676 63.6942 121.453 62.8406 121.666 61.747C122.301 58.7204 122.375 55.62 122.573 52.5462C122.6 43.5793 122.722 34.6145 122.827 25.6517C122.798 25.3132 122.901 24.9336 122.726 24.6258C123.019 23.8625 122.788 22.9699 122.86 22.1553C122.346 22.3051 121.837 22.4631 121.332 22.6313C121.098 22.6395 120.865 22.6477 120.636 22.656C120.529 22.4815 120.414 22.3092 120.311 22.1368C120.659 21.6854 121.123 21.3509 121.548 20.9754C124.595 17.994 127.633 15.0023 130.667 12.0086C131.098 11.5038 131.707 11.2001 132.344 11.0462V11.0462Z" fill="white"/>
<path d="M40.2797 12.0308C42.0513 12.1977 43.8166 12.5294 45.6069 12.4939C48.5214 12.6421 51.4483 12.6671 54.3607 12.4418C56.686 12.3521 58.9988 11.9473 61.3262 12.0057C61.2159 12.7527 60.4852 13.1032 60.1375 13.7145C59.1154 15.4378 58.2931 17.3009 57.8393 19.2558C57.6478 20.6913 57.5666 22.1413 57.5624 23.5892C57.4854 31.2983 57.5353 39.0095 57.6332 46.7186C57.552 47.0775 57.9392 47.2215 58.2202 47.0879C62.6564 45.9801 67.2488 45.6379 71.8099 45.7735C73.4503 45.8445 75.1573 45.7088 76.7374 46.22C76.7062 46.3994 76.677 46.5789 76.6479 46.7583C76.1524 46.9398 75.6361 47.1088 75.2364 47.4676C73.9853 48.5046 72.8445 49.6688 71.6683 50.7891C71.3727 51.1125 70.8835 51.4338 71.0334 51.945C71.4872 54.4924 71.5955 57.0899 72.093 59.6291C73.0631 63.1696 74.2081 66.6622 75.1095 70.2257C75.4863 70.2257 75.836 70.088 76.092 69.8042C76.6416 69.2388 77.3015 68.7965 77.8844 68.2687C78.1009 65.9716 78.1821 63.6578 78.2404 61.3503C78.3965 59.7584 78.3403 58.1603 78.3903 56.5642C78.4507 48.1791 78.2883 39.7731 77.2786 31.4402C76.8144 31.5508 76.3439 31.6551 75.9151 31.8679C73.7189 32.8631 71.5705 33.971 69.5262 35.2499C68.9746 35.5733 68.4583 36.026 68.2563 36.654C67.7921 38.1061 67.9233 39.6605 68.0024 41.1606C67.6672 41.267 67.3341 41.3755 67.0011 41.484C65.2545 38.6653 63.4433 35.8549 62.2068 32.763C61.8529 31.7031 61.3012 30.6265 61.5115 29.4769C62.3629 29.0701 63.0561 28.4171 63.8326 27.8934C66.9365 25.6923 70.209 23.6873 73.7313 22.2331C74.2101 22.0704 74.8825 21.7344 75.2781 22.2268C78.5402 25.5024 81.6982 28.8823 84.825 32.2873C86.5091 34.1733 88.3535 36.1387 88.8594 38.7112C89.3382 41.7155 89.409 44.7616 89.4215 47.7973C89.3944 51.2711 89.5089 54.7511 89.2591 58.2187C89.2404 60.885 89.1633 63.5493 89.1613 66.2157C90.3562 66.7602 91.7405 66.8103 93 66.4765C92.9459 66.8604 92.6503 67.1233 92.3838 67.3736C90.6414 68.9655 88.874 70.5324 87.092 72.0784C85.8763 73.1007 85.2705 74.653 84.061 75.6815C82.7703 76.8207 80.8343 76.9187 79.2584 76.4118C77.645 75.573 77.6492 73.5451 77.518 71.9699C75.4134 73.4867 73.3504 75.064 71.2936 76.6454C70.3235 77.3965 69.0391 76.9709 67.9587 76.7623C67.1697 76.5432 66.16 76.2323 65.9435 75.3269C65.0296 72.5562 64.1324 69.7792 63.2144 67.0106C62.2214 63.8978 61.0556 60.8266 60.3873 57.6199C60.1021 56.5913 60.6101 55.5836 61.1201 54.7219C62.4962 52.5 64.4696 50.7516 66.3411 48.9657C63.4288 49.5227 60.3978 49.988 57.7976 51.5048C57.7747 58.6818 57.8622 65.8568 57.8393 73.0339C57.9788 76.0967 57.833 79.1637 57.935 82.2264C57.9413 85.8359 57.9621 89.4453 58.0558 93.0526C58.2702 95.8671 58.7219 98.932 60.6705 101.114C61.372 101.986 62.5107 102.278 63.2914 103.05C63.1894 103.378 63.052 103.691 62.8896 103.993C62.5378 103.996 62.1881 104.016 61.8404 103.971C57.9746 103.343 54.0755 102.89 50.1618 102.733C46.4771 102.706 42.7758 102.566 39.1098 103.011C38.9266 102.408 38.3167 101.934 38.3604 101.283C40.4026 100.138 42.3698 98.546 43.1734 96.2614C44.1934 93.3635 44.3267 90.2569 44.5785 87.2233C44.8388 81.7299 44.92 76.2261 44.7638 70.7285C44.6243 67.0461 44.6556 63.347 44.1934 59.6854C40.3609 62.6918 35.6166 64.2086 30.9264 65.2518C30.966 72.8941 31.0701 80.5365 31.1221 88.1788C31.1992 89.7833 31.0472 91.4002 31.2366 92.9983C31.7029 94.7509 33.4225 95.6501 34.8568 96.5139C35.1857 96.7329 35.7165 97.2044 35.4209 97.605C34.8235 97.6801 34.2739 97.3901 33.7056 97.267C31.8799 96.8727 30.0126 96.7517 28.1577 96.5869C21.9874 96.1717 15.7984 96.0674 9.61559 96.034C9.39493 95.9672 8.78498 95.7544 9.24088 95.55C9.25753 95.3705 9.29084 95.0159 9.30749 94.8364C11.5121 93.9643 13.7291 92.6958 14.9532 90.5823C15.7005 89.3201 15.7193 87.8179 15.8463 86.4013C16.019 83.6181 15.9691 80.8265 16.0773 78.0391C16.0815 74.1814 15.9982 70.3238 15.942 66.4661C13.0172 65.1078 10.0881 63.7517 7.23616 62.2433C5.24809 61.2606 3.83874 59.4538 2.63133 57.647C1.61752 56.0509 0.709876 54.3777 0 52.621V52.1933C3.18091 50.7474 6.68449 50.2467 10.1152 49.7752C10.1173 50.1152 10.2151 50.5638 9.85291 50.7599C7.71496 52.043 5.45626 53.1259 3.37243 54.5049C4.0719 55.3249 4.94415 55.9633 5.8164 56.583C8.22707 58.2562 10.8376 59.6186 13.4772 60.8892C14.1975 61.2126 14.9074 61.6507 15.7214 61.6591C15.8504 60.3092 15.7672 58.9489 15.7817 57.5948C15.6881 54.82 15.7609 52.0368 15.5527 49.2661C15.484 47.1756 15.5548 45.0788 15.3654 42.9966C15.1968 36.0323 14.8866 29.0722 14.6284 22.1142C14.2038 19.9318 12.2948 18.4443 10.288 17.7662C10.3234 17.351 10.5711 16.9337 11 16.8398C11.7036 16.7752 12.4135 16.8503 13.1171 16.8962C14.083 17.038 15.0594 16.9483 16.0315 16.9692C17.4846 16.9504 18.9439 17.036 20.3928 16.8732C22.6119 16.8294 24.8332 16.819 27.0544 16.7647C28.9529 16.6166 30.8598 16.5895 32.7646 16.5811C32.698 16.9921 32.6293 17.4011 32.5627 17.81C31.3823 18.415 30.635 19.6147 30.3207 20.8749C30.0917 22.183 30.1229 23.5183 30.1062 24.8431C30.1062 28.3211 30.0979 31.7991 30.2228 35.2729C30.2957 38.1938 30.2478 41.1209 30.4435 44.0377C30.481 46.2659 30.4914 48.4962 30.5746 50.7245C30.7433 53.564 30.7453 56.4161 30.9556 59.2577C32.3254 59.0678 33.5578 58.3772 34.7798 57.7722C38.0939 55.9404 41.3227 53.9062 44.26 51.5068C44.2913 39.6855 43.9644 27.8558 43.0297 16.0741C42.986 14.8411 42.0034 13.9565 40.9667 13.4599C40.388 13.2263 40.211 12.6045 40.2797 12.0308V12.0308Z" fill="white"/>
<path d="M272.436 12.0142C273.056 11.8922 273.207 12.5821 273.187 13.0722C273.209 15.9875 273.326 18.9008 273.358 21.8161C273.452 23.5304 273.295 25.2678 273.536 26.9652C275.51 26.9421 277.484 27.0346 279.46 27.0262C279.5 27.3964 279.535 27.7687 279.582 28.1389C279.751 28.7468 279.657 29.3926 279.835 29.9984C279.902 30.6567 279.963 31.3193 280 31.9819C278.101 32.0239 276.203 32.0576 274.304 32.0744C274.041 32.0555 273.795 32.1333 273.56 32.228C273.203 38.1449 273.497 44.0744 273.379 49.9976C273.277 55.1236 273.04 60.2454 272.903 65.3714C272.736 66.1244 272.834 66.9069 272.781 67.6725C272.565 73.4863 272.259 79.3044 272.065 85.1203C271.982 86.6011 271.676 88.309 272.616 89.5816C274.139 91.1718 275.901 92.5117 277.71 93.7379C277.335 94.1754 276.994 94.6697 276.525 95C276.158 95.0021 275.844 94.7623 275.522 94.6319C271.796 92.7241 268.032 90.8857 264.441 88.7129C263.527 88.1597 262.632 87.5076 262.055 86.5737C261.488 85.7155 261.327 84.6575 261.319 83.6416C261.388 78.1727 261.457 72.7039 261.673 67.2392C261.849 61.8313 262.43 56.4529 262.534 51.043C262.638 45.4416 262.587 39.8129 262.036 34.243C261.994 33.429 261.888 32.6234 261.722 31.8283C258.827 31.8409 255.933 31.7862 253.039 31.7862C253.003 31.2604 252.982 30.7345 253.021 30.2087C256.53 28.1915 259.759 25.6695 262.787 22.9498C265.748 20.2448 268.427 17.2138 270.781 13.9346C271.284 13.2531 271.768 12.5401 272.436 12.0142V12.0142Z" fill="white"/>
<path d="M101.246 15.6752C101.721 15.4114 102.172 14.9514 102.754 15.0042C103.607 15.1456 104.372 15.5739 105.177 15.8651C105.627 17.9373 105.623 20.1044 105.949 22.1998C105.974 22.4446 105.999 22.6915 106.024 22.9384C106.1 22.9954 106.246 23.1072 106.321 23.1642C107.434 22.261 108.67 21.5267 109.872 20.7523C110.983 20.0517 112.281 19.4376 113.624 19.6465C114.473 19.8533 114.927 20.6932 115.334 21.3959C116.25 23.2676 117.043 25.2005 117.802 27.1418C118.662 29.2499 119.584 31.3664 120 33.6158C119.95 34.3311 119.615 34.9937 118.996 35.3715C116.261 37.1651 113.459 38.8553 110.656 40.5392C110.343 40.7144 110.039 40.9592 109.663 40.9296C109.46 40.5688 109.203 40.2459 108.914 39.9568C109.594 39.2795 110.221 38.5515 110.853 37.8319C110.811 37.8024 110.723 37.7412 110.681 37.7116C110.502 36.6228 110.146 35.574 109.864 34.5084C109.222 32.1598 108.519 29.8281 107.86 27.4858C107.722 26.8359 106.953 26.0783 106.338 26.6713C106.164 27.3528 106.275 28.0661 106.279 28.7603C106.43 33.5567 106.627 38.3489 106.723 43.1453C106.963 44.806 106.729 46.5131 106.997 48.1759C107.187 51.2884 107.601 54.384 107.777 57.4986C108.201 61.2927 108.18 65.1437 108.778 68.923C109.161 69.976 110.261 70.4888 111.183 70.9699C111.244 71.0712 111.363 71.2759 111.422 71.3793C111.386 71.5017 111.311 71.7507 111.273 71.873C105.447 72.0165 99.6168 71.9891 93.7864 71.9954C93.1674 71.9954 92.5442 72.0271 91.9294 71.9237C92.2515 71.1176 92.8098 70.4002 93.5585 69.9612C94.3134 69.5329 95.0746 69.0792 95.6769 68.444C95.8965 68.2246 95.9843 67.9228 95.9592 67.619C95.9634 61.6367 95.9529 55.6565 95.9404 49.6763C96.0052 48.828 95.7919 47.9944 95.8275 47.1462C95.8317 42.6389 95.7668 38.1294 95.7271 33.6221C95.4866 30.9908 95.702 28.3277 95.3486 25.7027C93.226 25.7006 91.0867 25.5993 88.9766 25.8694C88.6044 25.7681 88.0376 25.5444 88 25.1013C92.3811 21.915 96.7539 18.7054 101.246 15.6752V15.6752Z" fill="white"/>
<path d="M291.213 18.4376C291.501 17.8788 291.812 17.2784 292.426 17C292.563 17.0748 292.841 17.2244 292.978 17.2992C293.196 19.0504 293.156 20.8163 293.255 22.5738C293.414 23.2489 293.327 23.947 293.376 24.6346C293.518 28.0437 293.736 31.4486 293.863 34.8597C294.866 34.8369 295.876 34.8847 296.879 34.7974C297.586 34.9304 298.291 34.7289 299.002 34.7413C300.111 34.7538 301.222 34.7434 302.331 34.7039C302.264 36.073 302.361 37.469 302.088 38.8193C299.413 38.9253 296.733 39.0458 294.066 39.2784C294.096 42.3655 294.047 45.4526 294.094 48.5376C294.233 49.0009 294.172 49.487 294.183 49.9627C294.17 55.0878 294.267 60.2149 294.284 65.3399C294.487 67.6874 294.373 70.0495 294.453 72.4053C294.528 76.6931 294.648 80.9747 294.724 85.2667C294.872 87.5913 294.792 89.9305 295.046 92.249C297.294 93.3791 299.504 94.5799 301.747 95.7162C302.355 95.951 302.945 96.5825 303.629 96.3851C305.14 95.3776 306.486 94.1477 307.877 92.9906C308.226 92.7766 308.002 92.3674 307.921 92.0724C305.627 91.3785 303.237 91.0794 300.901 90.5662C300.09 90.3481 299.004 90.4104 298.568 89.5628C300.084 89.1619 301.673 89.3904 303.222 89.4444C306.816 89.6272 310.41 89.8516 314.002 90.0718C314.381 90.1424 314.976 90.1487 314.993 90.6784C315.078 91.3681 314.392 91.6798 313.975 92.0869C312.309 93.5806 310.827 95.255 309.253 96.838C308.307 97.777 307.686 99.0235 306.524 99.7444C306.122 100.081 305.549 100.033 305.081 99.896C301.263 98.7368 297.472 97.482 293.753 96.0486C290.332 94.7066 286.84 93.3583 283.86 91.1895C283.46 90.8197 282.91 90.4624 282.88 89.8724C282.552 84.3298 282.636 78.7789 282.628 73.2279C282.645 71.0799 282.698 68.9339 282.768 66.7879C282.795 57.5537 282.556 48.3236 282.361 39.0915C280.846 39.1663 279.324 39.1642 277.815 39.0354C277.155 39.0105 276.833 38.2127 277.087 37.6809C277.277 37.363 277.531 37.0888 277.796 36.825C280.748 33.8958 283.519 30.7734 285.892 27.3643C287.928 24.5494 289.636 21.5205 291.213 18.4376V18.4376Z" fill="white"/>
<path d="M343.562 26.1564C344.135 25.7167 344.749 26.2821 344.84 26.8893C345.179 28.7279 345.161 30.6147 345.464 32.4595C347.595 31.1508 349.742 29.8692 351.848 28.5164C352.315 28.2253 352.687 27.7332 353.264 27.662C353.649 27.5887 354.186 27.6097 354.411 28.0034C355.365 29.3666 356.173 30.8325 357.029 32.2627C358.351 34.6311 359.704 36.9974 360.676 39.5438C361.02 40.3751 361.075 41.3175 360.912 42.1991C360.293 43.4827 359.061 44.2596 358.056 45.1957C355.172 47.5808 352.249 49.9178 349.312 52.2338C349.038 51.8024 348.657 51.4632 348.297 51.1177C349.087 49.8759 350.02 48.7325 350.849 47.518C350.911 47.2353 350.816 46.9547 350.745 46.6866C350.026 44.3999 349.357 42.0964 348.641 39.8076C348.284 38.6412 347.938 37.4748 347.572 36.3147C346.817 36.8508 346.059 37.389 345.278 37.8853C345.368 44.1779 345.679 50.4643 345.775 56.7591C345.99 58.9118 345.863 61.098 345.984 63.2633C346.193 65.1249 346.023 67.0221 346.221 68.8879C346.326 73.6519 346.571 78.4097 346.792 83.1674C346.993 84.8133 348.213 86.0739 349.545 86.8885C351.228 87.9188 353.125 88.5282 355.027 88.9763C355.354 89.0664 355.688 89.125 356.026 89.2213C356.818 89.3281 357.606 89.4956 358.408 89.5773C358.398 90.038 358.377 90.4987 358.361 90.9594C356.632 91.0599 354.9 90.9385 353.172 90.9678C352.427 90.9196 351.674 91.0055 350.945 90.8526C348.6 90.8589 346.26 90.5867 343.982 90.0213C341.702 89.5061 339.45 88.8695 337.219 88.1701C334.407 87.3241 331.465 86.6938 328.524 87.054C328.33 86.5912 328.127 86.1305 328 85.6468C330.458 85.4248 332.161 83.2846 333.449 81.3309C334.45 79.2284 334.448 76.8203 334.495 74.5335C334.562 67.9665 334.409 61.4016 334.368 54.8347C334.188 53.1112 334.306 51.3543 334.235 49.6183C334.251 45.9956 333.991 42.3854 334.053 38.7627C333.035 38.7041 332.024 38.9051 331.009 38.8632C330.988 38.6098 330.972 38.3543 330.96 38.101C331.402 37.4162 331.781 36.6707 332.395 36.1242C336.159 32.8532 339.821 29.4567 343.562 26.1564V26.1564Z" fill="white"/>
<path d="M315.863 32.0035C315.31 32.0191 314.758 32.0847 314.233 32.2254C310.289 35.3033 306.473 38.5546 302.506 41.5974C302.083 43.5771 302.042 45.628 301.774 47.6304C301.751 48.9598 301.235 50.2284 301.248 51.5578C301.481 56.989 301.426 62.4224 301.5 67.8557C301.48 69.1851 301.052 70.4629 301 71.7882C301.772 72.5912 302.484 73.4521 303.249 74.2654C305.998 77.0935 308.754 79.9671 312.014 82.2131C312.522 82.6073 313.179 82.6827 313.794 82.7962C315.362 82.9407 316.945 83.1234 318.52 82.884C319.283 82.9314 319.859 82.3503 320.284 81.7847C321.716 79.6791 323.338 77.7108 324.886 75.6898C325.711 74.5317 326.733 73.4964 327.352 72.2062C325.994 70.2472 324.966 68.0177 323.307 66.2919C323.119 66.3084 322.742 66.3446 322.554 66.359C322.414 67.6492 322.11 68.9074 321.832 70.1729C321.029 73.4634 320.155 76.7684 318.68 79.8339C318.512 80.1415 318.334 80.7608 317.88 80.4532C315.598 79.1692 313.916 76.8334 313.33 74.286C312.975 72.166 313.091 70.0026 312.912 67.866C312.854 65.1865 312.806 62.507 312.804 59.8254C312.785 59.4786 312.835 59.107 312.659 58.7933C312.861 58.4754 312.779 58.1048 312.7 57.7663C312.795 56.313 312.349 54.7307 313.108 53.3744C315.293 53.3496 317.399 54.002 319.51 54.4891C320.775 54.7967 322.034 55.128 323.297 55.4542C323.563 55.5347 323.828 55.5946 324.107 55.6606C325.023 55.9042 325.947 56.1231 326.867 56.3625C327.199 56.4368 327.64 56.537 327.883 56.2129C329.718 54.5036 330.849 52.2039 332 50.0199C331.604 48.6492 330.998 47.328 330.53 45.9738C329.83 44.1262 329.122 42.2817 328.446 40.4259C328.01 39.3731 327.703 38.2656 327.228 37.2314C325.827 36.3478 324.32 35.6233 322.874 34.8058C322.331 34.523 321.786 34.2443 321.244 33.9697C319.809 33.2617 318.397 32.4659 316.853 32.0241C316.526 32.0048 316.195 31.9941 315.863 32.0035V32.0035ZM315.502 35.6212C315.89 35.6304 316.228 35.8263 316.307 36.2869C317.109 38.3513 317.924 40.4063 318.742 42.4644C319.798 45.0676 320.758 47.714 321.878 50.2882C321.872 50.4637 321.871 50.6392 321.873 50.8146C320.614 50.8786 319.36 50.6412 318.117 50.505C316.334 50.4018 314.562 50.1479 312.783 49.9992C312.789 47.8936 313.014 45.7994 313.093 43.6979C313.348 41.231 313.159 38.6268 314.217 36.3231C314.424 35.9016 315.003 35.6094 315.502 35.6212H315.502Z" fill="white"/>
<path d="M159.287 36C161.039 36.347 162.845 36.1164 164.616 36.3242C166.203 36.3553 167.777 36.5278 169.348 36.7273C170.231 36.7585 171.129 36.8021 172 36.5943C171.979 36.7689 171.961 36.9455 171.942 37.12C171.191 38.3502 170.471 39.6137 169.929 40.954C168.009 45.1183 165.764 49.1164 163.538 53.1228C161.536 56.672 159.754 60.3439 157.783 63.9118C152.582 73.2982 146.911 82.4497 140.413 90.9904C136.877 91.0589 133.345 90.7535 129.837 90.3337C126.506 89.8121 123.187 89.1534 119.95 88.1996C118.832 87.8983 117.734 87.5263 116.639 87.1544C115.876 86.878 115.104 86.6265 114.353 86.319C113.569 86.0198 112.802 85.6852 112.034 85.3548C110.662 84.7543 109.324 84.0851 108.01 83.3724C107.917 82.5994 108.486 81.9199 108.815 81.257C110.201 79.0667 112.038 77.2194 113.904 75.4468C116.602 75.6297 119.292 75.9539 121.985 76.1783C122.654 76.3736 123.442 76.0931 124.031 76.5336C123.967 76.9181 123.566 76.9534 123.28 77.0615C121.058 77.6766 118.824 78.2418 116.612 78.8943C116.145 78.9815 116.083 79.5239 115.897 79.8813C115.539 80.8621 115.055 81.8388 115.028 82.9048C116.621 83.6695 118.423 83.7797 120.14 84.0851C125.788 84.854 131.525 85.2052 137.206 84.6254C139.266 81.232 141.418 77.8927 143.516 74.5201C144.141 73.6016 144.658 72.6104 145.353 71.7418C145.672 71.3428 145.483 70.7838 145.401 70.3308C143.95 65.1981 142.349 60.1091 140.775 55.0138C140.092 52.863 139.413 50.7102 138.716 48.5657C138.358 47.5309 138.042 46.4794 137.678 45.4466C137.291 44.3931 136.982 43.3063 136.492 42.2943C135.894 41.5504 134.854 41.3966 133.962 41.3052C134.043 41.0267 134.177 40.769 134.353 40.5384C135.067 40.5301 135.778 40.5072 136.492 40.4656C138.751 40.2412 141.042 40.3576 143.309 40.1997C146.255 40.2412 149.189 39.8256 152.124 39.73C151.553 40.9727 149.857 40.8231 149.118 41.9036C148.746 42.3213 148.698 42.9156 148.847 43.4372C149.996 47.8467 151.148 52.2583 152.389 56.6429C152.569 57.1375 152.613 57.7256 153.041 58.0851C155.124 54.8101 156.93 51.3669 158.84 47.986C159.605 46.5708 160.383 45.1619 161.093 43.7177C161.436 43.0174 161.467 42.2216 161.741 41.4984C161.999 40.6568 162.276 39.8194 162.572 38.9903C162.713 38.6287 162.862 38.2671 163.005 37.9055C161.573 37.7684 160.354 36.9019 159.287 36V36Z" fill="white"/>
</svg>
