<svg width="60" height="60" viewBox="0 0 100 100" fill="black" xmlns="http://www.w3.org/2000/svg">
<path d="M21.875 18.75C21.0462 18.75 20.2513 19.0792 19.6653 19.6653C19.0792 20.2513 18.75 21.0462 18.75 21.875C18.75 22.7038 19.0792 23.4987 19.6653 24.0847C20.2513 24.6708 21.0462 25 21.875 25H53.125C53.9538 25 54.7487 24.6708 55.3347 24.0847C55.9208 23.4987 56.25 22.7038 56.25 21.875C56.25 21.0462 55.9208 20.2513 55.3347 19.6653C54.7487 19.0792 53.9538 18.75 53.125 18.75H21.875ZM21.875 37.5C21.0462 37.5 20.2513 37.8292 19.6653 38.4153C19.0792 39.0013 18.75 39.7962 18.75 40.625C18.75 41.4538 19.0792 42.2487 19.6653 42.8347C20.2513 43.4208 21.0462 43.75 21.875 43.75H53.125C53.9538 43.75 54.7487 43.4208 55.3347 42.8347C55.9208 42.2487 56.25 41.4538 56.25 40.625C56.25 39.7962 55.9208 39.0013 55.3347 38.4153C54.7487 37.8292 53.9538 37.5 53.125 37.5H21.875ZM18.75 59.375C18.75 58.5462 19.0792 57.7513 19.6653 57.1653C20.2513 56.5792 21.0462 56.25 21.875 56.25H53.125C53.9538 56.25 54.7487 56.5792 55.3347 57.1653C55.9208 57.7513 56.25 58.5462 56.25 59.375C56.25 60.2038 55.9208 60.9987 55.3347 61.5847C54.7487 62.1708 53.9538 62.5 53.125 62.5H21.875C21.0462 62.5 20.2513 62.1708 19.6653 61.5847C19.0792 60.9987 18.75 60.2038 18.75 59.375ZM21.875 75C21.0462 75 20.2513 75.3292 19.6653 75.9153C19.0792 76.5013 18.75 77.2962 18.75 78.125C18.75 78.9538 19.0792 79.7487 19.6653 80.3347C20.2513 80.9208 21.0462 81.25 21.875 81.25H53.125C53.9538 81.25 54.7487 80.9208 55.3347 80.3347C55.9208 79.7487 56.25 78.9538 56.25 78.125C56.25 77.2962 55.9208 76.5013 55.3347 75.9153C54.7487 75.3292 53.9538 75 53.125 75H21.875Z" />
<path d="M0 12.5C0 9.18479 1.31696 6.00537 3.66117 3.66117C6.00537 1.31696 9.18479 0 12.5 0L87.5 0C90.8152 0 93.9946 1.31696 96.3388 3.66117C98.683 6.00537 100 9.18479 100 12.5V87.5C100 90.8152 98.683 93.9946 96.3388 96.3388C93.9946 98.683 90.8152 100 87.5 100H12.5C9.18479 100 6.00537 98.683 3.66117 96.3388C1.31696 93.9946 0 90.8152 0 87.5V12.5ZM75 6.25V93.75H87.5C89.1576 93.75 90.7473 93.0915 91.9194 91.9194C93.0915 90.7473 93.75 89.1576 93.75 87.5V12.5C93.75 10.8424 93.0915 9.25268 91.9194 8.08058C90.7473 6.90848 89.1576 6.25 87.5 6.25H75ZM68.75 6.25H12.5C10.8424 6.25 9.25268 6.90848 8.08058 8.08058C6.90848 9.25268 6.25 10.8424 6.25 12.5V87.5C6.25 89.1576 6.90848 90.7473 8.08058 91.9194C9.25268 93.0915 10.8424 93.75 12.5 93.75H68.75V6.25Z" />
</svg>
