<svg width="50" height="50" viewBox="0 0 50 50" fill="white" xmlns="http://www.w3.org/2000/svg">
<path fill-rule="evenodd" clip-rule="evenodd" d="M14.5187 5.14375C14.6639 4.99824 14.8363 4.88279 15.0261 4.80402C15.216 4.72525 15.4195 4.68471 15.625 4.68471C15.8305 4.68471 16.034 4.72525 16.2238 4.80402C16.4137 4.88279 16.5861 4.99824 16.7312 5.14375L35.4812 23.8938C35.6267 24.0389 35.7422 24.2113 35.821 24.4011C35.8997 24.591 35.9403 24.7945 35.9403 25C35.9403 25.2055 35.8997 25.409 35.821 25.5989C35.7422 25.7887 35.6267 25.9611 35.4812 26.1063L16.7312 44.8563C16.4378 45.1496 16.0399 45.3145 15.625 45.3145C15.2101 45.3145 14.8121 45.1496 14.5187 44.8563C14.2253 44.5629 14.0605 44.1649 14.0605 43.75C14.0605 43.3351 14.2253 42.9371 14.5187 42.6438L32.1656 25L14.5187 7.35625C14.3732 7.21111 14.2578 7.03868 14.179 6.84886C14.1002 6.65903 14.0597 6.45552 14.0597 6.25C14.0597 6.04448 14.1002 5.84097 14.179 5.65115C14.2578 5.46132 14.3732 5.28889 14.5187 5.14375V5.14375Z"/>
</svg>
